<svg width="46" height="46" viewBox="0 0 46 46" fill="none" xmlns="http://www.w3.org/2000/svg">
<rect x="0.5" y="0.5" width="45" height="45" rx="22.5" stroke="#E1306C"/>
<path d="M23.0134 19.9062C21.2991 19.9062 19.933 21.2991 19.933 22.9866C19.933 24.7009 21.2991 26.067 23.0134 26.067C24.7009 26.067 26.0938 24.7009 26.0938 22.9866C26.0938 21.2991 24.7009 19.9062 23.0134 19.9062ZM23.0134 24.9955C21.9152 24.9955 21.0045 24.1116 21.0045 22.9866C21.0045 21.8884 21.8884 21.0045 23.0134 21.0045C24.1116 21.0045 24.9955 21.8884 24.9955 22.9866C24.9955 24.1116 24.1116 24.9955 23.0134 24.9955ZM26.9241 19.7991C26.9241 19.3973 26.6027 19.0759 26.2009 19.0759C25.7991 19.0759 25.4777 19.3973 25.4777 19.7991C25.4777 20.2009 25.7991 20.5223 26.2009 20.5223C26.6027 20.5223 26.9241 20.2009 26.9241 19.7991ZM28.9598 20.5223C28.9062 19.558 28.692 18.7009 27.9955 18.0045C27.2991 17.308 26.442 17.0938 25.4777 17.0402C24.4866 16.9866 21.5134 16.9866 20.5223 17.0402C19.558 17.0938 18.7277 17.308 18.0045 18.0045C17.308 18.7009 17.0938 19.558 17.0402 20.5223C16.9866 21.5134 16.9866 24.4866 17.0402 25.4777C17.0938 26.442 17.308 27.2723 18.0045 27.9955C18.7277 28.692 19.558 28.9062 20.5223 28.9598C21.5134 29.0134 24.4866 29.0134 25.4777 28.9598C26.442 28.9062 27.2991 28.692 27.9955 27.9955C28.692 27.2723 28.9062 26.442 28.9598 25.4777C29.0134 24.4866 29.0134 21.5134 28.9598 20.5223ZM27.6741 26.5223C27.4866 27.058 27.058 27.4598 26.5491 27.6741C25.7455 27.9955 23.8705 27.9152 23.0134 27.9152C22.1295 27.9152 20.2545 27.9955 19.4777 27.6741C18.942 27.4598 18.5402 27.058 18.3259 26.5223C18.0045 25.7455 18.0848 23.8705 18.0848 22.9866C18.0848 22.1295 18.0045 20.2545 18.3259 19.4509C18.5402 18.942 18.942 18.5402 19.4777 18.3259C20.2545 18.0045 22.1295 18.0848 23.0134 18.0848C23.8705 18.0848 25.7455 18.0045 26.5491 18.3259C27.058 18.5134 27.4598 18.942 27.6741 19.4509C27.9955 20.2545 27.9152 22.1295 27.9152 22.9866C27.9152 23.8705 27.9955 25.7455 27.6741 26.5223Z" fill="#E1306C"/>
</svg>
