<svg width="46" height="46" viewBox="0 0 46 46" fill="none" xmlns="http://www.w3.org/2000/svg">
<rect x="0.5" y="0.5" width="45" height="45" rx="22.5" stroke="#0E76A8"/>
<path d="M18.4321 30.3328H15.2532V20.0958H18.4321V30.3328ZM16.841 18.6994C15.8247 18.6994 15 17.8574 15 16.8409C15 15.8244 15.8247 14.9995 16.841 14.9995C17.8572 14.9995 18.6819 15.8244 18.6819 16.8409C18.6819 17.8574 17.8572 18.6994 16.841 18.6994ZM30.3299 30.3328H27.1579V25.3495C27.1579 24.1619 27.1339 22.6388 25.5051 22.6388C23.8523 22.6388 23.5991 23.9291 23.5991 25.2639V30.3328H20.4236V20.0958H23.4725V21.4922H23.517C23.9413 20.6879 24.9781 19.8391 26.5248 19.8391C29.7414 19.8391 30.3333 21.9577 30.3333 24.7095V30.3328H30.3299Z" fill="#0E76A8"/>
</svg>
