<svg width="46" height="46" viewBox="0 0 46 46" fill="none" xmlns="http://www.w3.org/2000/svg">
<rect x="0.5" y="0.5" width="45" height="45" rx="22.5" stroke="#00ACEE"/>
<path d="M27.7789 20.4819C28.2485 20.1205 28.6712 19.6867 29 19.1807C28.5773 19.3735 28.0841 19.5181 27.591 19.5663C28.1076 19.253 28.4834 18.7711 28.6712 18.1687C28.2016 18.4578 27.6614 18.6747 27.1213 18.7952C26.6517 18.2892 26.0176 18 25.3131 18C23.9511 18 22.8474 19.1325 22.8474 20.5301C22.8474 20.7229 22.8708 20.9157 22.9178 21.1084C20.8748 20.988 19.0431 19.9759 17.8219 18.4578C17.6106 18.8193 17.4932 19.253 17.4932 19.7349C17.4932 20.6024 17.9159 21.3735 18.5969 21.8313C18.1977 21.8072 17.7984 21.7108 17.4697 21.5181V21.5422C17.4697 22.7711 18.3151 23.7831 19.4423 24.0241C19.2544 24.0723 19.0196 24.1205 18.8082 24.1205C18.6438 24.1205 18.5029 24.0964 18.3386 24.0723C18.6438 25.0843 19.5597 25.8072 20.6399 25.8313C19.7945 26.506 18.7378 26.9157 17.5871 26.9157C17.3757 26.9157 17.1879 26.8916 17 26.8675C18.0802 27.5904 19.3718 28 20.7808 28C25.3131 28 27.7789 24.1687 27.7789 20.8193C27.7789 20.6988 27.7789 20.6024 27.7789 20.4819Z" fill="#00ACEE"/>
</svg>
