<svg width="46" height="46" viewBox="0 0 46 46" fill="none" xmlns="http://www.w3.org/2000/svg">
<rect x="0.5" y="0.5" width="45" height="45" rx="22.5" stroke="#25D366"/>
<path d="M27.9031 18.0344C26.5938 16.7219 24.85 16 22.9969 16C19.1719 16 16.0594 19.1125 16.0594 22.9375C16.0594 24.1594 16.3781 25.3531 16.9844 26.4063L16 30L19.6781 29.0344C20.6906 29.5875 21.8313 29.8781 22.9938 29.8781H22.9969C26.8188 29.8781 30 26.7656 30 22.9406C30 21.0875 29.2125 19.3469 27.9031 18.0344ZM22.9969 28.7094C21.9594 28.7094 20.9437 28.4313 20.0594 27.9063L19.85 27.7813L17.6688 28.3531L18.25 26.225L18.1125 26.0063C17.5344 25.0875 17.2313 24.0281 17.2313 22.9375C17.2313 19.7594 19.8187 17.1719 23 17.1719C24.5406 17.1719 25.9875 17.7719 27.075 18.8625C28.1625 19.9531 28.8313 21.4 28.8281 22.9406C28.8281 26.1219 26.175 28.7094 22.9969 28.7094ZM26.1594 24.3906C25.9875 24.3031 25.1344 23.8844 24.975 23.8281C24.8156 23.7688 24.7 23.7406 24.5844 23.9156C24.4688 24.0906 24.1375 24.4781 24.0344 24.5969C23.9344 24.7125 23.8313 24.7281 23.6594 24.6406C22.6406 24.1313 21.9719 23.7313 21.3 22.5781C21.1219 22.2719 21.4781 22.2938 21.8094 21.6313C21.8656 21.5156 21.8375 21.4156 21.7937 21.3281C21.75 21.2406 21.4031 20.3875 21.2594 20.0406C21.1188 19.7031 20.975 19.75 20.8688 19.7438C20.7688 19.7375 20.6531 19.7375 20.5375 19.7375C20.4219 19.7375 20.2344 19.7813 20.075 19.9531C19.9156 20.1281 19.4688 20.5469 19.4688 21.4C19.4688 22.2531 20.0906 23.0781 20.175 23.1938C20.2625 23.3094 21.3969 25.0594 23.1375 25.8125C24.2375 26.2875 24.6687 26.3281 25.2188 26.2469C25.5531 26.1969 26.2437 25.8281 26.3875 25.4219C26.5312 25.0156 26.5312 24.6688 26.4875 24.5969C26.4469 24.5188 26.3313 24.475 26.1594 24.3906Z" fill="#25D366"/>
</svg>
