<svg width="30" height="30" viewBox="0 0 30 30" fill="none" xmlns="http://www.w3.org/2000/svg">
<g clip-path="url(#clip0_851_8200)">
<path d="M29.9902 13.3173V13.3171C29.9412 12.8497 29.6991 12.419 29.326 12.1335L27.6185 10.8042L28.2603 8.68656C28.3972 8.23475 28.3404 7.74105 28.1045 7.33181C27.8682 6.92279 27.4691 6.62685 27.0093 6.51927L24.8612 6.01779L24.587 3.82922C24.5282 3.36046 24.2755 2.93245 23.8937 2.6555C23.5115 2.37741 23.026 2.26915 22.5625 2.35842L20.3962 2.77384L19.2552 0.885784C18.8011 0.134362 17.8475 -0.149453 17.0378 0.225C16.9808 0.251321 16.9258 0.282907 16.878 0.316782L14.9977 1.62645L13.1875 0.365534C12.8 0.0959097 12.3132 -0.00228094 11.8513 0.0956808C11.3894 0.193643 10.9843 0.482035 10.7401 0.886242L9.59954 2.77407L7.43294 2.35842C6.969 2.26961 6.48399 2.37787 6.10245 2.65528C5.72021 2.93291 5.46753 3.36092 5.40893 3.82922L5.13473 6.01802L2.86285 6.54834L2.75619 6.58313L2.71682 6.6003C1.89147 6.96125 1.47857 7.83878 1.73537 8.68656L2.37693 10.8042L0.596224 12.1894L0.492998 12.2791L0.46393 12.3109C-0.133682 12.9637 -0.157028 13.9511 0.408312 14.6112L1.80243 16.2784L0.672442 18.3289L0.627352 18.4315L0.614306 18.4697C0.332552 19.3118 0.716388 20.2268 1.50695 20.5979L3.50372 21.5349L3.31672 23.7326C3.27667 24.2034 3.43505 24.6747 3.75091 25.0254C4.06677 25.3762 4.51881 25.5829 4.99122 25.5925L7.19651 25.6365L7.91977 27.72C8.0745 28.1663 8.41073 28.5325 8.84194 28.7243C9.27316 28.9164 9.77006 28.9214 10.2059 28.7381L12.2386 27.8814L13.8341 29.584L13.9176 29.6584L13.9499 29.6824C14.2651 29.9152 14.6334 30.0292 14.9982 30.0292C15.4598 30.0292 15.9158 29.8465 16.2493 29.4906L17.7576 27.8814L19.7905 28.7383C20.2254 28.9214 20.7221 28.9164 21.1533 28.7246C21.585 28.5325 21.9212 28.1663 22.0759 27.7202L22.7994 25.6365L25.1322 25.59L25.243 25.5779L25.2828 25.5699C26.1525 25.3925 26.7529 24.6026 26.679 23.7329L26.4922 21.5349L28.4892 20.5979C28.9165 20.3973 29.2454 20.0247 29.3915 19.5754C29.5373 19.1264 29.4903 18.6315 29.2624 18.2179L28.1935 16.2784L29.5878 14.6112C29.8925 14.2553 30.0392 13.7842 29.9902 13.3173ZM15.0911 22.5161C10.9719 22.5161 7.62062 19.1648 7.62062 15.0456C7.62062 10.9262 10.9719 7.57511 15.0911 7.57511C19.2105 7.57511 22.5618 10.9262 22.5618 15.0456C22.5618 19.1648 19.2103 22.5161 15.0911 22.5161Z" fill="#333E48"/>
<path d="M15.0909 9.33398C11.9417 9.33398 9.37939 11.8961 9.37939 15.0455C9.37939 18.1947 11.9417 20.7568 15.0909 20.7568C18.2404 20.7568 20.8025 18.1947 20.8025 15.0455C20.8025 11.8961 18.2404 9.33398 15.0909 9.33398ZM18.4821 13.9698L14.3901 18.0615C14.2184 18.2334 13.9934 18.3192 13.7682 18.3192C13.5432 18.3192 13.318 18.2334 13.1463 18.0615L11.5829 16.498C11.2393 16.1545 11.2393 15.5976 11.5829 15.254C11.9262 14.9107 12.483 14.9107 12.8266 15.254L13.7685 16.1959L17.2383 12.726C17.5816 12.3825 18.1387 12.3825 18.4821 12.726C18.8256 13.0693 18.8256 13.6262 18.4821 13.9698Z" fill="#333E48"/>
</g>
<defs>
<clipPath id="clip0_851_8200">
<rect width="30" height="30" fill="white"/>
</clipPath>
</defs>
</svg>
