<svg width="30" height="30" viewBox="0 0 30 30" fill="none" xmlns="http://www.w3.org/2000/svg">
<g clip-path="url(#clip0_851_8223)">
<path d="M22.0876 13.6922C22.1375 13.6922 22.1871 13.6929 22.237 13.6938L22.2498 13.694C22.5298 13.699 22.8074 13.7171 23.0823 13.7471V3.53966C23.0823 1.58798 21.4943 0 19.5426 0H4.18442C2.23251 0 0.644531 1.58798 0.644531 3.53966V23.8994C0.644531 25.8513 2.23251 27.4393 4.18419 27.4393H14.4381C13.5532 26.0172 13.0891 24.3931 13.0891 22.6957C13.0891 17.731 17.1256 13.6922 22.0876 13.6922ZM13.3392 5.7795H18.5847C19.0702 5.7795 19.4637 6.17294 19.4637 6.6584C19.4637 7.14386 19.0702 7.53731 18.5847 7.53731H13.3392C12.854 7.53731 12.4603 7.14386 12.4603 6.6584C12.4603 6.17294 12.854 5.7795 13.3392 5.7795ZM13.3392 9.29535H18.5847C19.0702 9.29535 19.4637 9.6888 19.4637 10.1743C19.4637 10.6597 19.0702 11.0532 18.5847 11.0532H13.3392C12.854 11.0532 12.4603 10.6597 12.4603 10.1743C12.4603 9.6888 12.854 9.29535 13.3392 9.29535ZM10.3876 21.6595H5.14206C4.6566 21.6595 4.26315 21.2661 4.26315 20.7806C4.26315 20.2954 4.6566 19.9017 5.14206 19.9017H10.3876C10.8728 19.9017 11.2665 20.2954 11.2665 20.7806C11.2665 21.2661 10.8728 21.6595 10.3876 21.6595ZM10.3876 18.0849H5.14206C4.6566 18.0849 4.26315 17.6914 4.26315 17.206C4.26315 16.7205 4.6566 16.3271 5.14206 16.3271H10.3876C10.8728 16.3271 11.2665 16.7205 11.2665 17.206C11.2665 17.6914 10.8728 18.0849 10.3876 18.0849ZM10.3876 14.569H5.14206C4.6566 14.569 4.26315 14.1756 4.26315 13.6901C4.26315 13.2047 4.6566 12.8112 5.14206 12.8112H10.3876C10.8728 12.8112 11.2665 13.2047 11.2665 13.6901C11.2665 14.1756 10.8728 14.569 10.3876 14.569ZM10.3876 11.0532H5.14206C4.6566 11.0532 4.26315 10.6597 4.26315 10.1743C4.26315 9.6888 4.6566 9.29535 5.14206 9.29535H10.3876C10.8728 9.29535 11.2665 9.6888 11.2665 10.1743C11.2665 10.6597 10.8728 11.0532 10.3876 11.0532ZM10.3876 7.53731H5.14206C4.6566 7.53731 4.26315 7.14386 4.26315 6.6584C4.26315 6.17294 4.6566 5.7795 5.14206 5.7795H10.3876C10.8728 5.7795 11.2665 6.17294 11.2665 6.6584C11.2665 7.14386 10.8728 7.53731 10.3876 7.53731ZM12.4603 13.6901C12.4603 13.2047 12.854 12.8112 13.3392 12.8112H15.8656C16.3511 12.8112 16.7445 13.2047 16.7445 13.6901C16.7445 14.1756 16.3511 14.569 15.8656 14.569H13.3392C12.854 14.569 12.4603 14.1756 12.4603 13.6901Z" fill="#333E48"/>
<path d="M27.2919 17.5749C25.9429 16.2021 24.1411 15.4271 22.2187 15.3932L22.2061 15.393C22.1665 15.3923 22.127 15.3916 22.0874 15.3916C18.0625 15.3916 14.7881 18.6683 14.7881 22.6959C14.7881 24.2956 15.2957 25.8147 16.2559 27.0893C17.6496 28.9393 19.775 30.0002 22.0874 30.0002C26.1122 30.0002 29.3866 26.7235 29.3866 22.6959C29.3866 20.7678 28.6428 18.9491 27.2919 17.5749ZM25.2061 21.5085L22.4188 24.9831C22.2455 25.199 21.9905 25.3123 21.7326 25.3123C21.5534 25.3123 21.373 25.2576 21.2174 25.1449L19.1384 23.6387C18.7455 23.3539 18.6576 22.8044 18.9425 22.4112C19.2272 22.0182 19.7768 21.9303 20.1698 22.2153L21.5712 23.2306L23.8351 20.4085C24.1388 20.0299 24.6918 19.9692 25.0706 20.273C25.4492 20.5767 25.5098 21.1299 25.2061 21.5085Z" fill="#333E48"/>
</g>
<defs>
<clipPath id="clip0_851_8223">
<rect width="30" height="30" fill="white"/>
</clipPath>
</defs>
</svg>
