<svg width="30" height="30" viewBox="0 0 30 30" fill="none" xmlns="http://www.w3.org/2000/svg">
<g clip-path="url(#clip0_851_8208)">
<path d="M20.5127 1.1814C20.6321 0.855681 20.5486 0.490173 20.2998 0.248474C20.051 0.00677428 19.6832 -0.065882 19.3611 0.0629071C16.5488 1.18779 13.4512 1.18779 10.6389 0.0629071C10.3168 -0.0659992 9.9491 0.00677428 9.70019 0.248474C9.45129 0.490173 9.36791 0.855681 9.48732 1.1814L11.3521 6.26957H18.648L20.5127 1.1814Z" fill="#333E48"/>
<path d="M25.7186 24.8338L23.7472 13.5973C23.1806 10.3676 20.3893 8.02344 17.1103 8.02344H12.8896C9.61061 8.02344 6.81932 10.3676 6.25271 13.5973L4.28414 24.8185C3.86467 24.9362 3.47994 25.1598 3.16271 25.4758C2.67234 25.9642 2.40234 26.6143 2.40234 27.3064V27.3508C2.40234 28.0596 2.6768 28.7253 3.1752 29.2252C3.67365 29.7251 4.33693 30.0003 5.04305 30.0003H5.04457C9.5349 29.9979 21.461 29.9991 25.0092 29.9996H25.0096C25.7009 29.9996 26.3509 29.7304 26.8397 29.2415C27.3285 28.7526 27.5977 28.1026 27.5977 27.4112V27.3669C27.5977 26.1727 26.8043 25.1609 25.7186 24.8338ZM15 17.6914C17.0193 17.6914 18.6621 19.3343 18.6621 21.3535C18.6621 23.0698 17.475 24.5135 15.8789 24.9083V25.6016C15.8789 26.087 15.4854 26.4805 15 26.4805C14.5146 26.4805 14.1211 26.087 14.1211 25.6016V24.9083C12.525 24.5135 11.3379 23.0698 11.3379 21.3535C11.3379 20.8681 11.7314 20.4746 12.2168 20.4746C12.7022 20.4746 13.0957 20.8681 13.0957 21.3535C13.0957 22.4035 13.95 23.2578 15 23.2578C16.05 23.2578 16.9043 22.4035 16.9043 21.3535C16.9043 20.3035 16.05 19.4492 15 19.4492C12.9807 19.4492 11.3379 17.8064 11.3379 15.7871C11.3379 14.0708 12.525 12.6271 14.1211 12.2323V11.5391C14.1211 11.0537 14.5146 10.6602 15 10.6602C15.4854 10.6602 15.8789 11.0537 15.8789 11.5391V12.2323C17.475 12.6271 18.6621 14.0708 18.6621 15.7871C18.6621 16.2725 18.2686 16.666 17.7832 16.666C17.2978 16.666 16.9043 16.2725 16.9043 15.7871C16.9043 14.7371 16.05 13.8828 15 13.8828C13.95 13.8828 13.0957 14.7371 13.0957 15.7871C13.0957 16.8371 13.95 17.6914 15 17.6914Z" fill="#333E48"/>
</g>
<defs>
<clipPath id="clip0_851_8208">
<rect width="30" height="30" fill="white"/>
</clipPath>
</defs>
</svg>
