<svg width="260" height="50" viewBox="0 0 260 50" fill="none" xmlns="http://www.w3.org/2000/svg">
<g clip-path="url(#clip0_2_13637)">
<path d="M20.5206 17.5596L17.9795 32.4716H22.0435L24.5867 17.5596H20.5206Z" fill="#0023A0"/>
<path d="M14.5718 17.5764L10.5914 27.7459L10.167 26.2104C9.38199 24.3603 7.15345 21.7031 4.53711 20.0286L8.17678 32.4643L12.4771 32.457L18.8773 17.5732L14.5718 17.5764Z" fill="#0023A0"/>
<path d="M8.62393 18.6436C8.3877 17.7353 7.70304 17.4645 6.85322 17.4321H0.552264L0.5 17.729C5.40342 18.9185 8.64797 21.7847 9.99429 25.231L8.62393 18.6436Z" fill="#FF9B00"/>
<path d="M32.8228 20.4186C34.1524 20.3977 35.1161 20.6883 35.8645 20.9894L36.2314 21.1618L36.7812 17.9298C35.9764 17.6277 34.7147 17.3037 33.1405 17.3037C29.1246 17.3037 26.2939 19.3263 26.272 22.2249C26.2458 24.3667 28.2883 25.5625 29.8312 26.2764C31.4148 27.0081 31.9458 27.4733 31.9384 28.1266C31.9259 29.1248 30.6757 29.5826 29.5082 29.5826C27.8807 29.5826 27.0162 29.3579 25.6814 28.8018L25.1577 28.5635L24.5859 31.9011C25.5371 32.3181 27.2922 32.6767 29.1141 32.6955C33.3862 32.6955 36.1624 30.6969 36.1917 27.5997C36.2095 25.9053 35.1255 24.6123 32.7768 23.5514C31.3552 22.8594 30.4855 22.3995 30.4939 21.7012C30.4939 21.0814 31.2318 20.4186 32.8228 20.4186Z" fill="#0023A0"/>
<path d="M47.2119 17.5762H44.0718C43.0966 17.5762 42.3712 17.8417 41.9426 18.8138L35.9082 32.4798H40.1761C40.1761 32.4798 40.8722 30.6422 41.0301 30.2398C41.4973 30.2398 45.644 30.246 46.2345 30.246C46.3558 30.7666 46.73 32.4798 46.73 32.4798H50.5003L47.2119 17.5762ZM42.1998 27.1875C42.5342 26.3315 43.8189 23.02 43.8189 23.02C43.7969 23.0608 44.1502 22.1576 44.3603 21.5963L44.6342 22.882C44.6342 22.882 45.4129 26.4423 45.576 27.1875H42.1998Z" fill="#0023A0"/>
</g>
<path d="M107.239 17.8474C106.681 17.1863 105.933 16.6366 105.011 16.2099C104.804 15.6821 104.52 15.2013 104.156 14.77C102.704 13.046 99.9461 12.0967 96.3915 12.0967C95.3272 12.0967 91.1197 12.0522 88.7525 12.0005C87.7922 11.9802 86.946 12.6437 86.7363 13.5794L82.5496 32.4135C82.4145 33.0156 82.5583 33.6372 82.9442 34.1191C83.3298 34.6007 83.905 34.877 84.5219 34.877H85.7685L85.632 35.4909C85.4969 36.093 85.6407 36.7147 86.0265 37.1965C86.4122 37.6781 86.9874 37.9544 87.6045 37.9544H92.6723C93.633 37.9544 94.4665 37.2707 94.6546 36.3288L95.5526 31.8323L100.297 31.7778L100.336 31.7734C100.651 31.7371 102.313 31.4951 104.093 30.29C105.108 29.6029 105.97 28.7281 106.655 27.6899C107.49 26.4245 108.063 24.9124 108.357 23.1959C108.737 20.9782 108.361 19.1787 107.239 17.8474ZM84.1343 33.1661C84.0786 33.0965 83.9919 32.9495 84.0375 32.7456L88.2242 13.9121C88.276 13.6826 88.4843 13.5187 88.7193 13.5249C91.0953 13.5767 95.3219 13.6213 96.3915 13.6213C99.4439 13.6213 101.849 14.3981 102.99 15.7525C103.809 16.7243 104.072 18.1067 103.772 19.8608C103.303 22.5939 102.087 24.6426 100.156 25.95C98.7234 26.9198 97.3523 27.144 97.1135 27.1767L92.4004 27.2309C91.6817 27.2309 91.1356 27.6442 91.0096 28.2826L90.0771 32.9529C90.0309 33.1844 89.826 33.3524 89.5899 33.3524H84.5219C84.3145 33.3524 84.1899 33.2355 84.1343 33.1661ZM106.854 22.9383C106.385 25.6713 105.169 27.72 103.238 29.0274C101.806 29.9972 100.435 30.2214 100.196 30.2541L95.4827 30.3083C94.7641 30.3083 94.218 30.7217 94.092 31.36L93.1595 36.0303C93.1133 36.2618 92.9084 36.4298 92.6723 36.4298H87.6045C87.3968 36.4298 87.2725 36.3132 87.2167 36.2435C87.161 36.1739 87.0743 36.0269 87.1199 35.823L87.3304 34.877H89.5901C90.5506 34.877 91.3843 34.1932 91.5724 33.2514L92.4702 28.7547L97.2143 28.7003L97.2533 28.696C97.5685 28.6597 99.2308 28.4177 101.011 27.2126C102.026 26.5253 102.887 25.6505 103.573 24.6124C104.408 23.3469 104.98 21.835 105.274 20.1183C105.39 19.4423 105.435 18.8053 105.411 18.2085C105.664 18.3997 105.885 18.607 106.073 18.8297C106.892 19.8017 107.154 21.1841 106.854 22.9383Z" fill="#002F86"/>
<g clip-path="url(#clip1_2_13637)">
<path d="M171.458 25.3014C171.463 24.2143 171.055 23.1256 170.235 22.3052C169.413 21.4831 168.322 21.0758 167.232 21.0824C167.227 21.0824 167.222 21.082 167.216 21.082C164.851 21.082 162.975 22.9579 162.975 25.3241C162.975 27.667 164.874 29.5659 167.216 29.5659C169.583 29.5659 171.459 27.6897 171.459 25.3241C171.459 25.3164 171.458 25.309 171.458 25.3014Z" fill="#F26E21"/>
<path d="M162.186 27.1182C161.552 27.7529 160.966 28.0009 160.336 28.0143C158.801 28.0006 157.672 26.8634 157.672 25.2421C157.672 24.426 157.981 23.7571 158.47 23.1857C158.929 22.7499 159.521 22.4683 160.201 22.4683C160.935 22.4683 161.506 22.713 162.158 23.3656V21.4894C161.506 21.1632 160.935 21 160.201 21C159.164 21.0741 158.186 21.4931 157.436 22.1511C157.22 22.3456 157.013 22.5602 156.837 22.806C156.289 23.516 155.958 24.3855 155.958 25.324C155.958 27.6894 157.835 29.4841 160.201 29.4841C160.212 29.4841 160.223 29.4831 160.235 29.483C160.251 29.4832 160.266 29.4841 160.282 29.4841C160.935 29.4841 161.506 29.3213 162.24 28.9949L162.186 27.1182C162.158 27.1458 162.213 27.1714 162.186 27.1974V27.1182Z" fill="#333E48"/>
<path d="M176.813 22.1686L174.966 26.7108L172.845 21.3262H171.132L174.476 29.5657H175.374L178.882 21.3262H177.169L176.813 22.1686Z" fill="#333E48"/>
<path d="M179.535 24.9158V29.3213H183.941H184.022V28.0156H182.635H181.167V26.5475V25.8135H183.941V24.4262H181.167V22.7132H184.022V21.3262H179.535V24.9158Z" fill="#333E48"/>
<path d="M142.662 21.3262H140.377V29.3213H142.661C143.885 29.3213 144.782 28.9947 145.516 28.4237C146.414 27.6894 146.985 26.5476 146.985 25.3241C146.985 22.9577 145.272 21.3262 142.662 21.3262ZM144.538 27.3634C144.048 27.7711 143.396 28.0156 142.417 28.0156H141.927V22.7131H142.335C143.314 22.7131 143.967 22.8763 144.456 23.3655C145.027 23.8547 145.354 24.5894 145.354 25.3238C145.435 26.058 145.109 26.8734 144.538 27.3634Z" fill="#333E48"/>
<path d="M149.269 21.3252H147.719V29.3201H149.269V21.3252Z" fill="#333E48"/>
<path d="M153.185 24.4263C152.207 24.1 151.961 23.8551 151.961 23.4474C151.961 22.9579 152.451 22.5501 153.104 22.5501C153.593 22.5501 154.001 22.7133 154.409 23.2028L155.225 22.1423C154.572 21.571 153.757 21.2451 152.859 21.2451C151.472 21.2451 150.33 22.2241 150.33 23.529C150.33 24.6713 150.82 25.1607 152.288 25.7318C152.941 25.9762 153.185 26.0581 153.349 26.2212C153.675 26.3841 153.838 26.7107 153.838 27.0366C153.838 27.6894 153.349 28.179 152.614 28.179C151.879 28.179 151.227 27.7712 150.901 27.1184L149.922 28.0975C150.656 29.1579 151.554 29.6473 152.696 29.6473C154.327 29.6473 155.469 28.5868 155.469 27.0366C155.469 25.6501 154.98 25.0791 153.185 24.4263Z" fill="#333E48"/>
<path d="M188.427 25.9761C189.65 25.7318 190.303 24.9156 190.303 23.6923C190.303 22.2241 189.242 21.3262 187.448 21.3262H185.082V29.3213H186.632V26.1394H186.877L189.079 29.3213H190.956L188.427 25.9761ZM187.121 24.9971H186.632V22.55H187.121C188.1 22.55 188.672 22.9577 188.672 23.7741C188.672 24.5895 188.1 24.9971 187.121 24.9971Z" fill="#333E48"/>
</g>
<g clip-path="url(#clip2_2_13637)">
<path d="M235.5 36.1111C238.516 33.4127 240.421 29.4444 240.421 25C240.421 20.5556 238.516 16.6667 235.5 13.8889C232.881 11.5079 229.31 10 225.5 10C217.246 10 210.5 16.746 210.5 25C210.5 33.254 217.246 39.9206 225.5 39.9206C229.31 40 232.881 38.4921 235.5 36.1111Z" fill="#FE000B"/>
<path d="M245.579 10C241.69 10 238.198 11.4286 235.5 13.8889C234.944 14.3651 234.468 14.9206 233.992 15.4762H237.008C237.404 15.9524 237.801 16.5079 238.119 17.0635H232.801C232.484 17.619 232.166 18.0952 231.928 18.6508H238.992C239.23 19.2063 239.468 19.6825 239.627 20.2381H231.373C231.214 20.7936 231.055 21.2698 230.896 21.8254H240.103C240.341 22.8571 240.42 23.8889 240.42 25C240.42 26.6667 240.182 28.254 239.627 29.7619H231.373C231.531 30.3175 231.769 30.7936 232.008 31.3492H239.071C238.833 31.9048 238.516 32.4603 238.198 32.9365H232.881C233.198 33.4921 233.595 34.0476 233.992 34.5238H237.008C236.531 35.0794 236.055 35.6349 235.5 36.1111C238.198 38.4921 241.69 40 245.579 40C253.833 40 260.5 33.3333 260.5 25.0794C260.5 16.746 253.833 10 245.579 10Z" fill="#FFA914"/>
<path d="M223.595 28.7304H221.69L222.802 22.9367L220.262 28.7304H218.595L218.278 22.9367L217.167 28.7304H215.5L216.929 21.1113H219.865L220.024 25.8732L222.087 21.1113H225.103L223.595 28.7304Z" fill="white"/>
<path d="M244.389 28.6512C243.834 28.81 243.516 28.8893 243.04 28.8893C242.088 28.8893 241.611 28.4131 241.611 27.5401C241.611 27.3814 241.611 27.2227 241.691 26.9846L241.77 26.3496L241.849 25.8735L242.722 21.1909H244.548L244.31 22.6195H245.262L245.024 24.0481H244.072L243.595 26.5877C243.595 26.6671 243.516 26.8258 243.516 26.8258C243.516 27.1433 243.754 27.302 244.151 27.302C244.389 27.302 244.548 27.302 244.627 27.2227L244.389 28.6512Z" fill="white"/>
<path d="M249.866 22.6197C249.707 22.5403 249.707 22.5403 249.628 22.5403C249.548 22.5403 249.469 22.5403 249.469 22.4609C249.389 22.4609 249.389 22.4609 249.231 22.4609C248.596 22.4609 248.199 22.699 247.643 23.4927L247.802 22.5403H246.136L245.024 28.7308H246.929C247.564 24.9213 247.882 24.2863 248.755 24.2863C248.834 24.2863 248.913 24.2863 248.993 24.2863L249.231 24.3657L249.866 22.6197Z" fill="white"/>
<path d="M237.008 24.5244C237.008 25.3181 237.484 25.8736 238.437 26.1911C239.23 26.5086 239.31 26.5879 239.31 26.9054C239.31 27.3022 238.992 27.4609 238.199 27.4609C237.643 27.4609 237.088 27.3816 236.532 27.2228L236.294 28.6514H236.373L236.691 28.7308C236.77 28.7308 237.008 28.7308 237.167 28.7308C237.643 28.8101 237.961 28.8101 238.199 28.8101C240.183 28.8101 241.135 28.1752 241.135 26.7467C241.135 25.8736 240.738 25.3974 239.786 25.0006C238.992 24.6832 238.913 24.6038 238.913 24.3657C238.913 24.0482 239.23 23.8895 239.865 23.8895C240.183 23.8895 240.738 23.8895 241.215 23.9689L241.453 22.5403C240.976 22.4609 240.262 22.4609 239.786 22.4609C237.723 22.4609 237.008 23.4133 237.008 24.5244Z" fill="white"/>
<path d="M229.627 28.7306H228.12V28.0956C227.643 28.5718 227.008 28.8099 226.135 28.8099C225.104 28.8099 224.469 28.0956 224.469 27.1433C224.469 25.6353 225.659 24.7623 227.723 24.7623C227.961 24.7623 228.199 24.7623 228.516 24.7623C228.596 24.5242 228.596 24.4448 228.596 24.3655C228.596 23.9686 228.278 23.8099 227.405 23.8099C226.85 23.8099 226.294 23.8893 225.897 23.9686L225.659 24.048H225.5L225.739 22.6988C226.691 22.4607 227.247 22.3813 227.961 22.3813C229.548 22.3813 230.421 23.0163 230.421 24.2067C230.421 24.5242 230.421 24.7623 230.262 25.4766L229.866 27.6988L229.786 28.0956L229.707 28.4131V28.6512L229.627 28.7306ZM228.278 25.9528C228.04 25.9528 227.961 25.9528 227.881 25.9528C226.85 25.9528 226.294 26.2702 226.294 26.9052C226.294 27.302 226.532 27.5401 226.929 27.5401C227.723 27.5401 228.278 26.9052 228.278 25.9528Z" fill="white"/>
<path d="M235.739 28.5718C235.104 28.7306 234.469 28.8099 233.834 28.8099C231.77 28.8099 230.659 27.8575 230.659 26.0321C230.659 23.8893 232.008 22.3813 233.913 22.3813C235.421 22.3813 236.373 23.2544 236.373 24.6036C236.373 25.0798 236.294 25.4766 236.135 26.1115H232.405C232.405 26.1909 232.405 26.2702 232.405 26.3496C232.405 27.0639 232.961 27.4607 233.993 27.4607C234.707 27.4607 235.262 27.3813 235.897 27.0639L235.739 28.5718ZM234.786 24.921C234.786 24.8417 234.786 24.6829 234.786 24.6036C234.786 24.1274 234.469 23.8099 233.913 23.8099C233.358 23.8099 232.881 24.2067 232.723 24.921H234.786Z" fill="white"/>
<path d="M255.659 25.9528C255.341 28.0163 253.913 28.8893 252.008 28.8893C249.944 28.8893 249.071 27.6194 249.071 26.0321C249.071 23.8893 250.5 22.3813 252.722 22.3813C254.627 22.3813 255.659 23.6512 255.659 25.1591C255.659 25.556 255.659 25.556 255.659 25.9528ZM253.674 25.1591C253.674 24.5242 253.436 23.9686 252.643 23.9686C251.69 23.9686 251.135 25.0798 251.135 26.1115C251.135 26.9052 251.532 27.4607 252.167 27.4607C252.563 27.4607 253.436 26.9052 253.595 25.9528C253.674 25.6353 253.674 25.3972 253.674 25.1591Z" fill="white"/>
<path d="M249.15 26.7466C249.23 26.191 249.309 25.5561 249.309 25.0005C249.309 24.9212 249.309 24.8418 249.309 24.8418C249.23 25.2386 249.15 25.6354 249.15 26.1116C249.071 26.2704 249.071 26.5085 249.15 26.7466Z" fill="white"/>
</g>
<defs>
<clipPath id="clip0_2_13637">
<rect width="50" height="50" fill="white"/>
</clipPath>
<clipPath id="clip1_2_13637">
<rect width="50" height="50" fill="white" transform="translate(140)"/>
</clipPath>
<clipPath id="clip2_2_13637">
<rect width="50" height="50" fill="white" transform="translate(210)"/>
</clipPath>
</defs>
</svg>
