<svg width="15" height="16" viewBox="0 0 15 16" fill="none" xmlns="http://www.w3.org/2000/svg">
<path d="M8.17855 15.304C8.14376 15.304 8.10898 15.304 8.0742 15.2866C7.76115 15.2344 7.51768 14.991 7.50028 14.6779L6.89159 8.62574L0.822024 8.01705C0.50898 7.98227 0.248111 7.73879 0.213328 7.44314C0.161154 7.13009 0.335067 6.83444 0.613328 6.69531L13.8307 0.764874C14.0916 0.643135 14.4046 0.695309 14.6133 0.904005C14.822 1.1127 14.8742 1.42574 14.7525 1.68661L8.82202 14.904C8.70028 15.1475 8.43942 15.304 8.17855 15.304ZM3.55246 6.90401L7.56985 7.30401C7.90029 7.33879 8.16115 7.59966 8.19594 7.93009L8.61333 11.9475L12.7177 2.78227L3.55246 6.90401Z" fill="#73787D"/>
</svg>
