<svg width="13" height="16" viewBox="0 0 13 16" fill="none" xmlns="http://www.w3.org/2000/svg">
<path d="M10.3955 1.37391C9.40422 0.486957 8.01292 0 6.49987 0C4.98683 0 3.59552 0.486957 2.60422 1.37391C1.38683 2.45217 0.760742 4.06957 0.760742 6.08696C0.760742 10.4522 5.78683 15.5826 6.01292 15.7913C6.15205 15.9304 6.32596 16 6.49987 16C6.67379 16 6.86509 15.9304 6.98683 15.7913C7.21292 15.5826 12.239 10.4522 12.239 6.08696C12.239 4.06957 11.6129 2.45217 10.3955 1.37391ZM6.49987 14.2783C6.03031 13.7565 5.28248 12.887 4.55205 11.8435C2.98683 9.61739 2.15205 7.63478 2.15205 6.08696C2.15205 1.73913 5.47379 1.3913 6.49987 1.3913C10.5347 1.3913 10.8477 4.9913 10.8477 6.08696C10.8477 9.14783 7.73466 12.9217 6.49987 14.2783ZM6.49987 3.0087C4.96944 3.0087 3.73466 4.27826 3.73466 5.82609C3.73466 7.37391 4.96944 8.62609 6.49987 8.62609C8.03031 8.62609 9.26509 7.35652 9.26509 5.8087C9.26509 4.26087 8.03031 3.0087 6.49987 3.0087ZM6.49987 7.4087C5.6477 7.4087 4.95205 6.69565 4.95205 5.8087C4.95205 4.92174 5.6477 4.2087 6.49987 4.2087C7.35205 4.2087 8.0477 4.92174 8.0477 5.8087C8.0477 6.69565 7.35205 7.4087 6.49987 7.4087Z" fill="#73787D"/>
</svg>
