<svg width="27" height="32" viewBox="0 0 27 32" fill="none" xmlns="http://www.w3.org/2000/svg">
<path d="M22.4086 16.893C22.3945 14.3125 23.5617 12.3648 25.9242 10.9305C24.6023 9.03906 22.6055 7.99844 19.9688 7.79453C17.4727 7.59766 14.7445 9.25 13.7461 9.25C12.6914 9.25 10.2727 7.86484 8.37422 7.86484C4.45078 7.92813 0.28125 10.9938 0.28125 17.2305C0.28125 19.0727 0.61875 20.9758 1.29375 22.9398C2.19375 25.5203 5.44219 31.8484 8.83125 31.743C10.6031 31.7008 11.8547 30.4844 14.1609 30.4844C16.3969 30.4844 17.557 31.743 19.5328 31.743C22.95 31.6938 25.8891 25.9422 26.7469 23.3547C22.1625 21.1961 22.4086 17.0266 22.4086 16.893ZM18.4289 5.34766C20.3484 3.06953 20.1727 0.995313 20.1164 0.25C18.4219 0.348437 16.4602 1.40313 15.3422 2.70391C14.1117 4.09609 13.3875 5.81875 13.5422 7.75938C15.3773 7.9 17.0508 6.95781 18.4289 5.34766Z" fill="black"/>
</svg>
