<svg width="16" height="16" viewBox="0 0 16 16" fill="none" xmlns="http://www.w3.org/2000/svg">
<path d="M1.10839 2.17381C1.12578 2.15642 1.12578 2.15642 1.14317 2.13903L3.02143 0.504249C3.2823 0.260771 3.63013 0.139032 4.01274 0.173814C4.34317 0.208597 4.67361 0.347728 4.91709 0.591206C4.93448 0.608597 4.95187 0.625988 4.96926 0.64338L6.81274 2.97381C7.29969 3.49555 7.2823 4.29555 6.77795 4.7999C6.74317 4.83468 6.70839 4.86947 6.67361 4.88686L5.73448 5.51294C5.80404 5.84338 6.291 6.78251 8.01274 8.50425C9.71708 10.2086 10.6736 10.6956 10.9867 10.7651L11.6127 9.82599C11.6301 9.7912 11.6649 9.75642 11.6997 9.72164C12.204 9.21729 13.0214 9.21729 13.5258 9.68686L15.8388 11.5303C15.8562 11.5477 15.8736 11.5651 15.891 11.5825C16.4127 12.1042 16.4475 12.9738 15.978 13.4782L14.3432 15.339C14.3258 15.3564 14.3258 15.3564 14.3084 15.3738C13.9953 15.6869 13.5084 15.8086 12.9693 15.8086C12.0127 15.8086 10.9171 15.426 10.3432 15.1999C9.23013 14.7651 7.05622 13.7042 4.89969 11.5477C3.29969 9.94773 2.01274 8.01729 1.24752 6.10425C0.934476 5.23468 0.204041 3.07816 1.10839 2.17381ZM5.90839 10.5912C9.12578 13.8086 12.7432 14.6956 13.3519 14.3999L14.9345 12.5738L12.6736 10.7825L12.0649 11.7042C12.0475 11.7216 12.0475 11.739 12.0301 11.7564C11.8214 12.0173 11.5258 12.1564 11.178 12.1738C10.8475 12.1912 9.82143 12.2434 7.05622 9.47816C6.37795 8.7999 4.291 6.71294 4.36056 5.35642C4.37795 5.0086 4.53448 4.71294 4.77795 4.50425C4.79535 4.48686 4.81274 4.46947 4.83013 4.46947L5.71708 3.84338L3.92578 1.56512L2.11709 3.14773C1.80404 3.75642 2.691 7.37381 5.90839 10.5912Z" fill="#73787D"/>
</svg>
