<svg width="29" height="25" viewBox="0 0 29 25" fill="none" xmlns="http://www.w3.org/2000/svg">
<path d="M3.16092 0C3.3407 0 3.49776 0.12002 3.54319 0.291992L3.87855 1.5625H26.7592C27.7618 1.5625 28.5619 2.55127 28.2804 3.54785L25.6133 12.9248C25.4207 13.5986 24.7984 14.0625 24.0921 14.0625H7.17628L8.20851 17.9688H24.4971C24.7144 17.9688 24.8922 18.1445 24.8922 18.3594C24.8922 18.5742 24.7144 18.75 24.4971 18.75H7.85785C7.7245 18.75 7.56645 18.6279 7.522 18.457L2.85569 0.78125H0.395115C0.176913 0.78125 0 0.606445 0 0.390625C0 0.174902 0.176913 0 0.395115 0H3.16092ZM4.0845 2.34375L6.96884 13.2812H24.0921C24.4428 13.2812 24.754 13.0469 24.8527 12.71L27.5198 3.33643C27.658 2.83838 27.2827 2.34375 26.7592 2.34375H4.0845ZM6.32184 22.6562C6.32184 21.3623 7.38371 20.3125 8.69253 20.3125C10.0013 20.3125 11.0632 21.3623 11.0632 22.6562C11.0632 23.9502 10.0013 25 8.69253 25C7.38371 25 6.32184 23.9502 6.32184 22.6562ZM8.69253 24.2188C9.56672 24.2188 10.273 23.5205 10.273 22.6562C10.273 21.792 9.56672 21.0938 8.69253 21.0938C7.81834 21.0938 7.11207 21.792 7.11207 22.6562C7.11207 23.5205 7.81834 24.2188 8.69253 24.2188ZM25.2874 22.6562C25.2874 23.9502 24.2255 25 22.9167 25C21.6078 25 20.546 23.9502 20.546 22.6562C20.546 21.3623 21.6078 20.3125 22.9167 20.3125C24.2255 20.3125 25.2874 21.3623 25.2874 22.6562ZM22.9167 21.0938C22.0425 21.0938 21.3362 21.792 21.3362 22.6562C21.3362 23.5205 22.0425 24.2188 22.9167 24.2188C23.7909 24.2188 24.4971 23.5205 24.4971 22.6562C24.4971 21.792 23.7909 21.0938 22.9167 21.0938Z" fill="black"/>
</svg>
