<svg width="12" height="14" viewBox="0 0 12 14" fill="none" xmlns="http://www.w3.org/2000/svg">
<path d="M5.92294 0C5.45491 0 5.07678 0.391016 5.07678 0.875V1.4C3.14649 1.80469 1.69217 3.57109 1.69217 5.6875V6.20156C1.69217 7.48672 1.23472 8.72812 0.409716 9.69062L0.214043 9.91758C-0.00807262 10.1746 -0.0609573 10.5438 0.0738985 10.8582C0.208754 11.1727 0.512841 11.375 0.846014 11.375H10.9999C11.333 11.375 11.6345 11.1727 11.772 10.8582C11.9095 10.5438 11.8539 10.1746 11.6318 9.91758L11.4362 9.69062C10.6112 8.72812 10.1537 7.48945 10.1537 6.20156V5.6875C10.1537 3.57109 8.69938 1.80469 6.76909 1.4V0.875C6.76909 0.391016 6.39097 0 5.92294 0ZM7.12077 13.4887C7.43808 13.1605 7.61524 12.7148 7.61524 12.25H5.92294H4.23063C4.23063 12.7148 4.40779 13.1605 4.7251 13.4887C5.04241 13.8168 5.47342 14 5.92294 14C6.37246 14 6.80347 13.8168 7.12077 13.4887Z" fill="black"/>
</svg>
