<svg width="16" height="16" viewBox="0 0 16 16" fill="none" xmlns="http://www.w3.org/2000/svg">
<path d="M2.17582 0.125C0.975721 0.125 0 1.13398 0 2.375V13.625C0 14.866 0.975721 15.875 2.17582 15.875H13.0549C14.255 15.875 15.2308 14.866 15.2308 13.625V2.375C15.2308 1.13398 14.255 0.125 13.0549 0.125H2.17582ZM4.68482 4.81133C4.9534 4.02734 5.67414 3.5 6.47988 3.5H8.46192C9.64842 3.5 10.6071 4.49492 10.6071 5.71836C10.6071 6.51289 10.1958 7.24766 9.52943 7.64492L8.43132 8.29531C8.42452 8.75234 8.06075 9.125 7.61538 9.125C7.16322 9.125 6.79945 8.74883 6.79945 8.28125V7.80664C6.79945 7.5043 6.95584 7.22656 7.21082 7.07539L8.7169 6.18242C8.87668 6.0875 8.97528 5.91172 8.97528 5.72187C8.97528 5.42656 8.74409 5.19102 8.46192 5.19102H6.47988C6.36429 5.19102 6.26229 5.26484 6.2249 5.37734L6.2113 5.41953C6.06171 5.85898 5.59255 6.0875 5.17098 5.93281C4.74942 5.77812 4.52503 5.29297 4.67462 4.85703L4.68822 4.81484L4.68482 4.81133ZM8.7033 11.375C8.7033 11.9973 8.21714 12.5 7.61538 12.5C7.01363 12.5 6.52747 11.9973 6.52747 11.375C6.52747 10.7527 7.01363 10.25 7.61538 10.25C8.21714 10.25 8.7033 10.7527 8.7033 11.375Z" fill="black"/>
</svg>
