<svg width="20" height="20" viewBox="0 0 20 20" fill="none" xmlns="http://www.w3.org/2000/svg">
<g clip-path="url(#clip0_444_10153)">
<path d="M10 20C15.5228 20 20 15.5228 20 10C20 4.47715 15.5228 0 10 0C4.47715 0 0 4.47715 0 10C0 15.5228 4.47715 20 10 20Z" fill="#FF3D3D"/>
<g clip-path="url(#clip1_444_10153)">
<path d="M14.4744 11.0258C14.3369 9.23617 13.5036 8.11466 12.7686 7.12499C12.0879 6.20877 11.5 5.41757 11.5 4.25043C11.5 4.15668 11.4475 4.07099 11.3643 4.02803C11.2807 3.98481 11.1804 3.99189 11.1045 4.04706C10.0005 4.83705 9.07935 6.16851 8.75758 7.43891C8.5342 8.32337 8.50464 9.31769 8.50049 9.97438C7.48096 9.75662 7.25001 8.23159 7.24757 8.21498C7.23609 8.13587 7.18776 8.06704 7.11745 8.02944C7.04641 7.99234 6.9629 7.98965 6.89088 8.0253C6.83741 8.05117 5.57861 8.69078 5.50537 11.2446C5.50023 11.3295 5.5 11.4147 5.5 11.4999C5.5 13.981 7.51879 15.9996 10 15.9996C10.0034 15.9999 10.0071 16.0003 10.01 15.9996C10.011 15.9996 10.012 15.9996 10.0132 15.9996C12.4883 15.9925 14.5 13.9766 14.5 11.4999C14.5 11.3752 14.4744 11.0258 14.4744 11.0258ZM10 15.4997C9.17284 15.4997 8.5 14.7829 8.5 13.9019C8.5 13.8719 8.49977 13.8416 8.50195 13.8045C8.51195 13.4329 8.58252 13.1793 8.65991 13.0106C8.80495 13.3221 9.06421 13.6084 9.48536 13.6084C9.62355 13.6084 9.73537 13.4966 9.73537 13.3585C9.73537 13.0025 9.7427 12.5919 9.83132 12.2213C9.91019 11.8927 10.0986 11.5431 10.3374 11.2629C10.4436 11.6266 10.6507 11.921 10.8528 12.2084C11.1421 12.6195 11.4412 13.0445 11.4937 13.7693C11.4969 13.8123 11.5 13.8555 11.5 13.9019C11.5 14.7829 10.8272 15.4997 10 15.4997Z" fill="white"/>
</g>
</g>
<defs>
<clipPath id="clip0_444_10153">
<rect width="20" height="20" fill="white"/>
</clipPath>
<clipPath id="clip1_444_10153">
<rect width="12" height="12" fill="white" transform="translate(4 4)"/>
</clipPath>
</defs>
</svg>
