<svg width="14" height="13" viewBox="0 0 14 13" fill="none" xmlns="http://www.w3.org/2000/svg">
<path d="M13.12 3.35C13.0525 3.005 12.745 2.75 12.385 2.75H1.615C1.255 2.75 0.9475 3.005 0.88 3.35L0.25 6.5V7.25C0.25 7.6625 0.5875 8 1 8V11.75C1 12.1625 1.3375 12.5 1.75 12.5H7.75C8.1625 12.5 8.5 12.1625 8.5 11.75V8H11.5V11.75C11.5 12.1625 11.8375 12.5 12.25 12.5C12.6625 12.5 13 12.1625 13 11.75V8C13.4125 8 13.75 7.6625 13.75 7.25V6.5L13.12 3.35ZM7 11H2.5V8H7V11ZM1.75 2H12.25C12.6625 2 13 1.6625 13 1.25C13 0.8375 12.6625 0.5 12.25 0.5H1.75C1.3375 0.5 1 0.8375 1 1.25C1 1.6625 1.3375 2 1.75 2Z" fill="black"/>
</svg>
