<svg width="25" height="22" viewBox="0 0 25 22" fill="none" xmlns="http://www.w3.org/2000/svg">
<path d="M12.5 3.46837L13.1934 2.59923C14.6533 0.724232 17.0947 -0.193248 19.4629 0.201772C22.6562 0.734486 25 3.49767 25 6.73986V7.32091C25 9.34728 24.1602 11.2858 22.6758 12.6676L13.8525 20.9049C13.4863 21.2467 13.0029 21.4371 12.5 21.4371C11.9971 21.4371 11.5137 21.2467 11.1475 20.9049L2.32373 12.6676C0.841309 11.2858 0 9.34728 0 7.32091V6.73986C0 3.49767 2.34277 0.734486 5.53711 0.201772C7.90527 -0.193248 10.3027 0.723744 11.8066 2.59923L12.5 3.46837ZM12.5 4.71837L11.1963 3.08751C9.87305 1.43322 7.75879 0.624135 5.66895 0.972279C2.84766 1.44201 0.78125 3.88341 0.78125 6.73986V7.32091C0.78125 9.08849 1.53271 10.861 2.85693 12.0963L11.6797 20.3336C11.9043 20.5387 12.1973 20.6559 12.5 20.6559C12.8027 20.6559 13.0957 20.5387 13.3203 20.3336L22.1436 12.0963C23.4668 10.861 24.2188 9.08849 24.2188 7.32091V6.73986C24.2188 3.88341 22.1533 1.44201 19.3311 0.972279C17.2412 0.624135 15.127 1.43322 13.8037 3.08751L12.5 4.71837Z" fill="black"/>
</svg>
