<svg width="23" height="25" viewBox="0 0 23 25" fill="none" xmlns="http://www.w3.org/2000/svg">
<path d="M11.5 12.5C14.9719 12.5 17.7857 9.70166 17.7857 6.25C17.7857 2.79834 14.9719 0 11.5 0C8.02812 0 5.21429 2.79834 5.21429 6.25C5.21429 9.70166 8.02812 12.5 11.5 12.5ZM11.5 0.78125C14.5329 0.78125 17 3.23438 17 6.25C17 9.26562 14.5329 11.7188 11.5 11.7188C8.46714 11.7188 6 9.26758 6 6.25C6 3.23438 8.46518 0.78125 11.5 0.78125ZM13.9897 14.8438H9.01027C4.31121 14.8438 0.5 18.6328 0.5 23.3057C0.5 24.2402 1.26214 24.9985 2.20205 24.9985H20.7989C21.7388 25 22.5 24.2432 22.5 23.3057C22.5 18.6328 18.6893 14.8438 13.9897 14.8438ZM20.796 24.2188H2.20254C1.69674 24.2188 1.28571 23.8086 1.28571 23.3057C1.28571 19.0723 4.7517 15.625 9.01027 15.625H13.9848C18.2473 15.625 21.7143 19.0723 21.7143 23.3057C21.7143 23.8086 21.3018 24.2188 20.796 24.2188Z" fill="black"/>
</svg>
