<?xml version="1.0" encoding="UTF-8"?>
<svg id="Layer_1" xmlns="http://www.w3.org/2000/svg" version="1.1" viewBox="0 0 16 16">
  <!-- Generator: Adobe Illustrator 29.4.0, SVG Export Plug-In . SVG Version: 2.1.0 Build 152)  -->
  <defs>
    <style>
      .st0 {
        fill: none;
      }

      .st1 {
        fill-rule: evenodd;
      }
    </style>
  </defs>
  <path class="st1" d="M6.65,8.93c-.12-.12-.32-.12-.44,0l-2.56,2.56v-1.73c0-.17-.14-.31-.31-.31s-.31.14-.31.31v2.48c0,.17.14.31.31.31h2.48c.17,0,.31-.14.31-.31s-.14-.31-.31-.31h-1.73l2.56-2.56c.12-.12.12-.32,0-.44M9.35,8.93c.12-.12.32-.12.44,0l2.56,2.56v-1.73c0-.17.14-.31.31-.31s.31.14.31.31v2.48c0,.17-.14.31-.31.31h-2.48c-.17,0-.31-.14-.31-.31s.14-.31.31-.31h1.73l-2.56-2.56c-.12-.12-.12-.32,0-.44M9.35,6.22c.12.12.32.12.44,0l2.56-2.56v1.73c0,.17.14.31.31.31s.31-.14.31-.31v-2.48c0-.17-.14-.31-.31-.31h-2.48c-.17,0-.31.14-.31.31s.14.31.31.31h1.73l-2.56,2.56c-.12.12-.12.32,0,.44M6.65,6.22c-.12.12-.32.12-.44,0l-2.56-2.56v1.73c0,.17-.14.31-.31.31s-.31-.14-.31-.31v-2.48c0-.17.14-.31.31-.31h2.48c.17,0,.31.14.31.31s-.14.31-.31.31h-1.73l2.56,2.56c.12.12.12.32,0,.44"/>
  <rect class="st0" x="-.52" y="-.52" width="16.9" height="16.9"/>
</svg>