<svg width="24" height="24" viewBox="0 0 24 24" fill="none" xmlns="http://www.w3.org/2000/svg">
<g id="icon-adidas-american-express" clip-path="url(#clip0_178_1477)">
<g id="Vector">
<path d="M24 0H0V24H24V0Z" fill="white"/>
<path d="M0 0V24H24V20.208H20.688L19.464 18.7762L18.192 20.208H8.784V12.5842H5.67984L9.56016 3.80016H13.3358L14.2478 5.79216V3.80016H18.936L19.7198 5.88816L20.4878 3.80016H24V0H0ZM21.288 5.04L20.0558 8.28816L19.728 9.16848L18.1522 5.04H15.4402V11.4403H17.0722V7.27248L17.064 6.432L17.3842 7.27248L18.9442 11.4403H20.496L22.0642 7.27248L22.368 6.44016V11.4403H24V5.04H21.288ZM10.44 5.04L7.608 11.4403H9.46368L9.96 10.2082H13.0642L13.56 11.4403H15.4402L12.624 5.04H10.44ZM11.1917 7.20816L11.5118 6.40848L11.832 7.20816L12.4958 8.82384H10.5278L11.1917 7.20816ZM21.4162 12.5923L19.488 14.664L17.568 12.5923H15.4402H10.0958V18.9682H15.4402V17.5843H11.7278V16.4722H15.3682V15.0965H11.7278V13.9762H15.4402V12.5923L18.4238 15.792L15.4402 18.9682H17.5042L19.4482 16.8883L21.384 18.9682H23.5037L20.5118 15.768L23.5037 12.5923H21.4162ZM22.1918 15.7603L24 17.6002V13.944L22.1918 15.7603Z" fill="#006FCF"/>
</g>
</g>
<defs>
<clipPath id="clip0_178_1477">
<rect width="24" height="24" fill="white"/>
</clipPath>
</defs>
</svg>
